<svg width="212" height="164" viewBox="0 0 212 164" fill="none" xmlns="http://www.w3.org/2000/svg">
<path d="M106.535 18.96V2.99996" stroke="white" stroke-width="5" stroke-linecap="round"/>
<path d="M120.278 22.063L126.041 10.9797" stroke="white" stroke-width="5" stroke-linecap="round"/>
<path d="M128.258 23.6147L132.913 16.0781" stroke="white" stroke-width="5" stroke-linecap="round"/>
<path d="M134.021 34.9199L146.878 22.2849" stroke="white" stroke-width="5" stroke-linecap="round"/>
<path d="M117.839 67.0615V47.1115" stroke="white" stroke-width="5" stroke-linecap="round"/>
<path d="M139.785 47.998L156.41 41.348" stroke="white" stroke-width="5" stroke-linecap="round"/>
<path d="M106.535 73.7115L106.535 57.9732M110.081 36.0282C110.081 36.0282 110.303 45.0057 110.303 47.9982C110.303 50.9907 108.973 51.434 107.421 54.8699C105.87 58.3057 106.535 57.9732 106.535 57.9732M106.535 57.9732L101.658 48.4415" stroke="white" stroke-width="5" stroke-linecap="round"/>
<path d="M139.785 56.6431H158.183" stroke="white" stroke-width="5" stroke-linecap="round"/>
<path d="M138.455 68.6133L156.41 76.5933" stroke="white" stroke-width="5" stroke-linecap="round"/>
<path d="M130.696 78.5879L146.656 94.5479" stroke="white" stroke-width="5" stroke-linecap="round"/>
<path d="M126.707 92.1094L132.692 101.419" stroke="white" stroke-width="5" stroke-linecap="round"/>
<path d="M94.7866 97.6514L118.062 97.208" stroke="white" stroke-width="5" stroke-linecap="round"/>
<path d="M98.5547 104.523L113.85 104.298" stroke="white" stroke-width="5" stroke-linecap="round"/>
<path d="M102.323 111.397L110.303 111.173" stroke="white" stroke-width="5" stroke-linecap="round"/>
<path d="M79.7134 101.645L85.4767 92.1096" stroke="white" stroke-width="5" stroke-linecap="round"/>
<path d="M65.748 94.5513L81.9297 78.588" stroke="white" stroke-width="5" stroke-linecap="round"/>
<path d="M55.9946 76.5962L73.9496 68.3913" stroke="white" stroke-width="5" stroke-linecap="round"/>
<path d="M62.6445 64.6265L64.6396 64.6232" stroke="white" stroke-width="5" stroke-linecap="round"/>
<path d="M54 56.6465L72.62 56.6426" stroke="white" stroke-width="5" stroke-linecap="round"/>
<path d="M55.9946 41.3511L72.6196 48.2195" stroke="white" stroke-width="5" stroke-linecap="round"/>
<path d="M55.9946 41.3511L72.6196 48.2195" stroke="white" stroke-width="5" stroke-linecap="round"/>
<path d="M131.219 46.3476C129.92 43.4414 129.633 41.572 127.894 38.9059C125.819 35.7233 124.249 34.0901 121.145 31.898C118.362 29.9323 116.549 29.072 113.272 28.1388C110.24 27.2753 108.41 27.0403 105.26 27.1558C101.281 27.3017 98.9917 27.9433 95.3514 29.5554C91.8485 31.1066 89.8402 32.2353 87.1963 35.0077C85.0746 37.2326 84.2635 38.8404 82.844 41.5674C81.3482 44.441 80.5117 46.1338 79.8571 49.3065C79.1215 52.8713 79.077 55.0374 79.6889 58.6255C80.1586 61.3801 80.7105 62.9001 81.886 65.4353C82.7331 67.2623 83.2427 68.2991 84.4575 69.9054C85.4472 71.2142 86.1938 71.7879 87.3204 72.981C89.4343 75.2196 91.2006 76.0152 92.8099 78.6401C93.4577 79.6967 93.8055 80.3147 94.2244 81.4812C94.8306 83.1691 94.7604 84.2296 95.0233 86.0037C95.3163 87.9807 95.1739 91.0998 95.5062 91.09C95.8386 91.0802 99.1956 90.981 101.489 90.9133C103.738 90.8468 105 90.8095 107.249 90.7431C111.965 90.6038 119.556 90.7122 119.103 90.3929M131.022 62.2094C130.268 65.1149 129.584 66.7242 128.016 69.2838C126.335 72.027 124.606 72.9814 122.656 75.5406C121.156 77.5101 120.832 77.5904 119.483 80.7349C118.135 83.8795 119.009 87.1801 119.009 87.1801M119.103 90.3929V90.3929C116.492 88.5523 113.484 87.3433 110.291 87.4376L108.927 87.4779L96.63 87.8412L119.009 87.1801M119.103 90.3929L119.009 87.1801" stroke="white" stroke-width="5" stroke-linecap="round"/>
<path d="M65.5264 22.063L78.383 35.363" stroke="white" stroke-width="5" stroke-linecap="round"/>
<path d="M79.4917 16.2998L83.925 23.3931" stroke="white" stroke-width="5" stroke-linecap="round"/>
<path d="M86.585 10.98L91.905 22.0633" stroke="white" stroke-width="5" stroke-linecap="round"/>
<path d="M60.4282 83.6865V83.4649" stroke="white" stroke-width="5" stroke-linecap="round"/>
<path d="M59.9849 34.9199V34.6983" stroke="white" stroke-width="5" stroke-linecap="round"/>
<path d="M95.4512 9.42822V9.20656" stroke="white" stroke-width="5" stroke-linecap="round"/>
<path d="M147.765 64.8447H149.538" stroke="white" stroke-width="5" stroke-linecap="round"/>
<path d="M116.953 9.20654L117.056 9.00989" stroke="white" stroke-width="5" stroke-linecap="round"/>
<path d="M151.977 34.6729L152.079 34.4762" stroke="white" stroke-width="5" stroke-linecap="round"/>
<path d="M117.839 39.7715L117.942 39.5748" stroke="white" stroke-width="5" stroke-linecap="round"/>
<path d="M152.198 83.8828L152.301 83.6862" stroke="white" stroke-width="5" stroke-linecap="round"/>
<path d="M87.7043 61.4777C87.7043 61.4777 90.2018 65.4595 92.7916 66.5073C93.9013 66.9562 94.6023 67.3637 95.7841 67.1723C97.0522 66.9668 97.8421 66.4678 98.5549 65.399C99.5396 63.9226 98.9855 62.5764 98.5549 60.8548C98.099 59.0317 97.379 58.1281 96.2274 56.6431C94.6075 54.5541 92.5336 54.4866 91.0182 52.3206C90.2636 51.2419 89.7054 50.6226 89.4666 49.3281C89.1709 47.7253 89.3487 46.5904 90.2424 45.2273C91.0181 44.0441 92.1943 42.6608 93.6782 41.2373C95.0783 39.8943 95.9222 39.1779 97.5574 38.134C99.3033 37.0195 102.323 35.8065 102.323 35.8065" stroke="white" stroke-width="5" stroke-linecap="round"/>
<path d="M6.12 156.288C5.052 156.288 4.164 156.114 3.456 155.766C2.748 155.406 2.19 154.89 1.782 154.218C1.374 153.546 1.08 152.736 0.9 151.788C0.732 150.84 0.648 149.772 0.648 148.584L4.464 148.224C4.464 148.8 4.482 149.358 4.518 149.898C4.566 150.426 4.644 150.906 4.752 151.338C4.872 151.758 5.04 152.094 5.256 152.346C5.484 152.598 5.772 152.724 6.12 152.724C6.696 152.724 7.104 152.46 7.344 151.932C7.584 151.392 7.704 150.744 7.704 149.988C7.704 149.232 7.506 148.446 7.11 147.63C6.714 146.814 6.24 146.04 5.688 145.308C4.752 144.06 3.93 142.902 3.222 141.834C2.526 140.766 1.98 139.716 1.584 138.684C1.2 137.652 1.008 136.572 1.008 135.444C1.008 134.556 1.122 133.74 1.35 132.996C1.578 132.24 1.908 131.586 2.34 131.034C2.784 130.47 3.318 130.032 3.942 129.72C4.566 129.408 5.28 129.252 6.084 129.252C7.08 129.252 7.92 129.42 8.604 129.756C9.3 130.092 9.858 130.572 10.278 131.196C10.71 131.82 11.022 132.564 11.214 133.428C11.418 134.28 11.52 135.228 11.52 136.272L7.704 136.632C7.704 136.188 7.68 135.744 7.632 135.3C7.596 134.844 7.524 134.43 7.416 134.058C7.308 133.686 7.152 133.386 6.948 133.158C6.744 132.93 6.48 132.816 6.156 132.816C5.652 132.816 5.304 133.032 5.112 133.464C4.92 133.884 4.824 134.484 4.824 135.264C4.824 136.272 5.094 137.244 5.634 138.18C6.174 139.116 6.9 140.208 7.812 141.456C8.904 142.932 9.792 144.288 10.476 145.524C11.172 146.76 11.52 148.128 11.52 149.628C11.52 150.576 11.418 151.458 11.214 152.274C11.01 153.078 10.686 153.78 10.242 154.38C9.81 154.98 9.252 155.448 8.568 155.784C7.896 156.12 7.08 156.288 6.12 156.288ZM16.7001 156V144.732L12.7401 129.54H16.5561L18.4641 138L18.5901 139.152H18.6981L18.8241 138L20.7321 129.54H24.5481L20.5881 144.732V156H16.7001ZM26.5784 156V129.54H30.4664V156H26.5784ZM38.8463 148.008V144.588H44.0663V148.008H38.8463ZM57.1016 156.288C56.0336 156.288 55.1456 156.114 54.4376 155.766C53.7296 155.406 53.1716 154.89 52.7636 154.218C52.3556 153.546 52.0616 152.736 51.8816 151.788C51.7136 150.84 51.6296 149.772 51.6296 148.584L55.4456 148.224C55.4456 148.8 55.4636 149.358 55.4996 149.898C55.5476 150.426 55.6256 150.906 55.7336 151.338C55.8536 151.758 56.0216 152.094 56.2376 152.346C56.4656 152.598 56.7536 152.724 57.1016 152.724C57.6776 152.724 58.0856 152.46 58.3256 151.932C58.5656 151.392 58.6856 150.744 58.6856 149.988C58.6856 149.232 58.4876 148.446 58.0916 147.63C57.6956 146.814 57.2216 146.04 56.6696 145.308C55.7336 144.06 54.9116 142.902 54.2036 141.834C53.5076 140.766 52.9616 139.716 52.5656 138.684C52.1816 137.652 51.9896 136.572 51.9896 135.444C51.9896 134.556 52.1036 133.74 52.3316 132.996C52.5596 132.24 52.8896 131.586 53.3216 131.034C53.7656 130.47 54.2996 130.032 54.9236 129.72C55.5476 129.408 56.2616 129.252 57.0656 129.252C58.0616 129.252 58.9016 129.42 59.5856 129.756C60.2816 130.092 60.8396 130.572 61.2596 131.196C61.6916 131.82 62.0036 132.564 62.1956 133.428C62.3996 134.28 62.5016 135.228 62.5016 136.272L58.6856 136.632C58.6856 136.188 58.6616 135.744 58.6136 135.3C58.5776 134.844 58.5056 134.43 58.3976 134.058C58.2896 133.686 58.1336 133.386 57.9296 133.158C57.7256 132.93 57.4616 132.816 57.1376 132.816C56.6336 132.816 56.2856 133.032 56.0936 133.464C55.9016 133.884 55.8056 134.484 55.8056 135.264C55.8056 136.272 56.0756 137.244 56.6156 138.18C57.1556 139.116 57.8816 140.208 58.7936 141.456C59.8856 142.932 60.7736 144.288 61.4576 145.524C62.1536 146.76 62.5016 148.128 62.5016 149.628C62.5016 150.576 62.3996 151.458 62.1956 152.274C61.9916 153.078 61.6676 153.78 61.2236 154.38C60.7916 154.98 60.2336 155.448 59.5496 155.784C58.8776 156.12 58.0616 156.288 57.1016 156.288ZM64.0817 156V129.54H67.7177V137.658C68.0297 137.334 68.4917 136.98 69.1037 136.596C69.7157 136.212 70.2977 136.02 70.8497 136.02C71.4497 136.02 71.9537 136.194 72.3617 136.542C72.7697 136.89 73.0757 137.358 73.2797 137.946C73.4837 138.522 73.5857 139.164 73.5857 139.872V156H69.9497V140.628C69.9497 140.268 69.8657 139.98 69.6977 139.764C69.5417 139.536 69.3557 139.422 69.1397 139.422C68.8877 139.422 68.5877 139.566 68.2397 139.854C67.8917 140.13 67.7177 140.442 67.7177 140.79V156H64.0817ZM78.0531 156.288C77.2131 156.288 76.4871 155.862 75.8751 155.01C75.2631 154.158 74.9571 152.856 74.9571 151.104C74.9571 149.412 75.3171 148.05 76.0371 147.018C76.7691 145.986 77.8611 145.092 79.3131 144.336C79.7691 144.096 80.1531 143.88 80.4651 143.688C80.7771 143.496 80.9691 143.316 81.0411 143.148V140.988C81.0411 140.496 80.9811 140.076 80.8611 139.728C80.7531 139.368 80.4771 139.188 80.0331 139.188C79.6251 139.188 79.3491 139.38 79.2051 139.764C79.0611 140.136 78.9891 140.604 78.9891 141.168V142.104H75.3531V141.276C75.3531 140.196 75.5631 139.266 75.9831 138.486C76.4151 137.694 76.9971 137.088 77.7291 136.668C78.4731 136.236 79.3131 136.02 80.2491 136.02C81.1491 136.02 81.9291 136.23 82.5891 136.65C83.2491 137.058 83.7591 137.628 84.1191 138.36C84.4911 139.08 84.6771 139.908 84.6771 140.844V152.58C84.6771 153.456 84.7011 154.14 84.7491 154.632C84.7971 155.112 84.8571 155.568 84.9291 156H81.3651C81.2091 155.808 81.1131 155.526 81.0771 155.154C81.0531 154.782 81.0411 154.536 81.0411 154.416H80.7891C80.4891 154.968 80.1051 155.418 79.6371 155.766C79.1811 156.114 78.6531 156.288 78.0531 156.288ZM79.5291 152.724C79.9491 152.724 80.3031 152.58 80.5911 152.292C80.8911 152.004 81.0411 151.692 81.0411 151.356V146.676C80.1651 147.048 79.5231 147.612 79.1151 148.368C78.7191 149.112 78.5211 149.952 78.5211 150.888C78.5211 151.296 78.5991 151.704 78.7551 152.112C78.9111 152.52 79.1691 152.724 79.5291 152.724ZM86.7592 156V136.308H90.3952V138.504C90.4672 138.024 90.6892 137.598 91.0612 137.226C91.4332 136.854 91.8832 136.56 92.4112 136.344C92.9512 136.128 93.4912 136.02 94.0312 136.02V140.052C93.8752 139.992 93.7072 139.956 93.5272 139.944C93.3592 139.92 93.1912 139.908 93.0232 139.908C92.2312 139.908 91.5952 140.124 91.1152 140.556C90.6352 140.988 90.3952 141.576 90.3952 142.32V156H86.7592ZM99.6975 156.288C98.2455 156.288 97.0995 155.79 96.2595 154.794C95.4315 153.786 95.0175 152.556 95.0175 151.104V141.204C95.0175 139.668 95.4315 138.42 96.2595 137.46C97.0875 136.5 98.2455 136.02 99.7335 136.02C100.706 136.02 101.54 136.242 102.236 136.686C102.944 137.13 103.484 137.736 103.856 138.504C104.228 139.26 104.414 140.124 104.414 141.096V146.82H98.4015V151.104C98.4015 151.596 98.5095 152.052 98.7255 152.472C98.9535 152.88 99.2895 153.084 99.7335 153.084C100.202 153.084 100.532 152.892 100.724 152.508C100.928 152.124 101.03 151.656 101.03 151.104V148.944H104.414V151.212C104.414 152.736 104 153.966 103.172 154.902C102.356 155.826 101.198 156.288 99.6975 156.288ZM98.4015 143.976H101.03V141.204C101.03 140.664 100.934 140.196 100.742 139.8C100.562 139.392 100.226 139.188 99.7335 139.188C99.2775 139.188 98.9415 139.398 98.7255 139.818C98.5095 140.226 98.4015 140.688 98.4015 141.204V143.976ZM115.252 156V144.732L111.292 129.54H115.108L117.016 138L117.142 139.152H117.25L117.376 138L119.284 129.54H123.1L119.14 144.732V156H115.252ZM129.073 156.252C127.621 156.252 126.481 155.766 125.653 154.794C124.825 153.81 124.411 152.568 124.411 151.068V141.204C124.411 139.704 124.825 138.468 125.653 137.496C126.481 136.512 127.621 136.02 129.073 136.02C130.513 136.02 131.647 136.512 132.475 137.496C133.315 138.468 133.735 139.704 133.735 141.204V151.068C133.735 152.568 133.315 153.81 132.475 154.794C131.647 155.766 130.513 156.252 129.073 156.252ZM129.073 153.084C129.541 153.084 129.865 152.898 130.045 152.526C130.225 152.142 130.315 151.656 130.315 151.068V141.204C130.315 140.604 130.225 140.118 130.045 139.746C129.865 139.374 129.541 139.188 129.073 139.188C128.605 139.188 128.281 139.374 128.101 139.746C127.921 140.118 127.831 140.604 127.831 141.204V151.068C127.831 151.668 127.921 152.154 128.101 152.526C128.281 152.898 128.605 153.084 129.073 153.084ZM138.12 156.288C137.52 156.288 137.016 156.096 136.608 155.712C136.2 155.328 135.894 154.842 135.69 154.254C135.486 153.654 135.384 153.048 135.384 152.436V136.308H139.02V151.716C139.02 152.088 139.086 152.358 139.218 152.526C139.362 152.682 139.584 152.76 139.884 152.76C140.148 152.76 140.37 152.67 140.55 152.49C140.742 152.298 140.916 152.076 141.072 151.824V136.308H144.708V156H141.072V154.344C140.64 154.752 140.154 155.178 139.614 155.622C139.074 156.066 138.576 156.288 138.12 156.288ZM146.53 156V136.308H150.166V138.504C150.238 138.024 150.46 137.598 150.832 137.226C151.204 136.854 151.654 136.56 152.182 136.344C152.722 136.128 153.262 136.02 153.802 136.02V140.052C153.646 139.992 153.478 139.956 153.298 139.944C153.13 139.92 152.962 139.908 152.794 139.908C152.002 139.908 151.366 140.124 150.886 140.556C150.406 140.988 150.166 141.576 150.166 142.32V156H146.53ZM161.239 156V129.54H165.127V156H161.239ZM170.149 156.288C169.549 156.288 169.039 156.102 168.619 155.73C168.199 155.358 167.881 154.878 167.665 154.29C167.449 153.69 167.341 153.072 167.341 152.436V139.872C167.341 139.236 167.443 138.624 167.647 138.036C167.863 137.448 168.181 136.968 168.601 136.596C169.021 136.212 169.537 136.02 170.149 136.02C170.605 136.02 171.085 136.176 171.589 136.488C172.093 136.8 172.573 137.172 173.029 137.604V129.54H176.665V156H173.029V154.704C172.549 155.124 172.075 155.496 171.607 155.82C171.139 156.132 170.653 156.288 170.149 156.288ZM171.877 152.868C172.153 152.868 172.411 152.754 172.651 152.526C172.903 152.298 173.029 152.016 173.029 151.68V140.628C173.029 140.34 172.903 140.07 172.651 139.818C172.411 139.566 172.153 139.44 171.877 139.44C171.613 139.44 171.397 139.554 171.229 139.782C171.061 139.998 170.977 140.28 170.977 140.628V151.68C170.977 152.016 171.061 152.298 171.229 152.526C171.397 152.754 171.613 152.868 171.877 152.868ZM183.588 156.288C182.136 156.288 180.99 155.79 180.15 154.794C179.322 153.786 178.908 152.556 178.908 151.104V141.204C178.908 139.668 179.322 138.42 180.15 137.46C180.978 136.5 182.136 136.02 183.624 136.02C184.596 136.02 185.43 136.242 186.126 136.686C186.834 137.13 187.374 137.736 187.746 138.504C188.118 139.26 188.304 140.124 188.304 141.096V146.82H182.292V151.104C182.292 151.596 182.4 152.052 182.616 152.472C182.844 152.88 183.18 153.084 183.624 153.084C184.092 153.084 184.422 152.892 184.614 152.508C184.818 152.124 184.92 151.656 184.92 151.104V148.944H188.304V151.212C188.304 152.736 187.89 153.966 187.062 154.902C186.246 155.826 185.088 156.288 183.588 156.288ZM182.292 143.976H184.92V141.204C184.92 140.664 184.824 140.196 184.632 139.8C184.452 139.392 184.116 139.188 183.624 139.188C183.168 139.188 182.832 139.398 182.616 139.818C182.4 140.226 182.292 140.688 182.292 141.204V143.976ZM192.602 156.288C191.762 156.288 191.036 155.862 190.424 155.01C189.812 154.158 189.506 152.856 189.506 151.104C189.506 149.412 189.866 148.05 190.586 147.018C191.318 145.986 192.41 145.092 193.862 144.336C194.318 144.096 194.702 143.88 195.014 143.688C195.326 143.496 195.518 143.316 195.59 143.148V140.988C195.59 140.496 195.53 140.076 195.41 139.728C195.302 139.368 195.026 139.188 194.582 139.188C194.174 139.188 193.898 139.38 193.754 139.764C193.61 140.136 193.538 140.604 193.538 141.168V142.104H189.902V141.276C189.902 140.196 190.112 139.266 190.532 138.486C190.964 137.694 191.546 137.088 192.278 136.668C193.022 136.236 193.862 136.02 194.798 136.02C195.698 136.02 196.478 136.23 197.138 136.65C197.798 137.058 198.308 137.628 198.668 138.36C199.04 139.08 199.226 139.908 199.226 140.844V152.58C199.226 153.456 199.25 154.14 199.298 154.632C199.346 155.112 199.406 155.568 199.478 156H195.914C195.758 155.808 195.662 155.526 195.626 155.154C195.602 154.782 195.59 154.536 195.59 154.416H195.338C195.038 154.968 194.654 155.418 194.186 155.766C193.73 156.114 193.202 156.288 192.602 156.288ZM194.078 152.724C194.498 152.724 194.852 152.58 195.14 152.292C195.44 152.004 195.59 151.692 195.59 151.356V146.676C194.714 147.048 194.072 147.612 193.664 148.368C193.268 149.112 193.07 149.952 193.07 150.888C193.07 151.296 193.148 151.704 193.304 152.112C193.46 152.52 193.718 152.724 194.078 152.724ZM206.024 156.288C205.172 156.288 204.428 156.144 203.792 155.856C203.156 155.568 202.628 155.16 202.208 154.632C201.788 154.092 201.47 153.456 201.254 152.724C201.05 151.992 200.948 151.176 200.948 150.276H204.332C204.332 151.08 204.458 151.782 204.71 152.382C204.974 152.97 205.412 153.264 206.024 153.264C206.552 153.264 206.894 153.042 207.05 152.598C207.206 152.154 207.284 151.644 207.284 151.068C207.284 150.396 207.02 149.712 206.492 149.016C205.976 148.308 205.436 147.678 204.872 147.126C203.9 146.166 203.09 145.218 202.442 144.282C201.806 143.346 201.488 142.248 201.488 140.988C201.488 139.5 201.878 138.3 202.658 137.388C203.438 136.476 204.548 136.02 205.988 136.02C206.852 136.02 207.578 136.134 208.166 136.362C208.766 136.59 209.246 136.932 209.606 137.388C209.966 137.844 210.224 138.402 210.38 139.062C210.548 139.722 210.632 140.484 210.632 141.348H207.248C207.248 140.724 207.182 140.184 207.05 139.728C206.918 139.272 206.588 139.044 206.06 139.044C205.628 139.044 205.322 139.23 205.142 139.602C204.962 139.962 204.872 140.424 204.872 140.988C204.872 141.648 205.028 142.236 205.34 142.752C205.664 143.256 206.198 143.874 206.942 144.606C207.878 145.518 208.73 146.49 209.498 147.522C210.278 148.554 210.668 149.676 210.668 150.888C210.668 151.68 210.56 152.406 210.344 153.066C210.14 153.726 209.834 154.296 209.426 154.776C209.03 155.256 208.544 155.628 207.968 155.892C207.404 156.156 206.756 156.288 206.024 156.288Z" fill="white"/>
</svg>
