<svg width="110" height="114" viewBox="0 0 110 114" fill="none" xmlns="http://www.w3.org/2000/svg">
<path d="M55.5347 18.96V2.99996" stroke="white" stroke-width="5" stroke-linecap="round"/>
<path d="M69.2778 22.063L75.0412 10.9797" stroke="white" stroke-width="5" stroke-linecap="round"/>
<path d="M77.2583 23.6147L81.9133 16.0781" stroke="white" stroke-width="5" stroke-linecap="round"/>
<path d="M83.0215 34.9199L95.8782 22.2849" stroke="white" stroke-width="5" stroke-linecap="round"/>
<path d="M66.8394 67.0615V47.1115" stroke="white" stroke-width="5" stroke-linecap="round"/>
<path d="M88.7847 47.998L105.41 41.348" stroke="white" stroke-width="5" stroke-linecap="round"/>
<path d="M55.5346 73.7115L55.5346 57.9732M59.0813 36.0282C59.0813 36.0282 59.3029 45.0057 59.3029 47.9982C59.3029 50.9907 57.9729 51.434 56.4212 54.8699C54.8696 58.3057 55.5346 57.9732 55.5346 57.9732M55.5346 57.9732L50.6579 48.4415" stroke="white" stroke-width="5" stroke-linecap="round"/>
<path d="M88.7847 56.6431H107.183" stroke="white" stroke-width="5" stroke-linecap="round"/>
<path d="M87.4546 68.6133L105.41 76.5933" stroke="white" stroke-width="5" stroke-linecap="round"/>
<path d="M79.6963 78.5879L95.6563 94.5479" stroke="white" stroke-width="5" stroke-linecap="round"/>
<path d="M75.7065 92.1094L81.6915 101.419" stroke="white" stroke-width="5" stroke-linecap="round"/>
<path d="M43.7866 97.6514L67.0616 97.208" stroke="white" stroke-width="5" stroke-linecap="round"/>
<path d="M47.5547 104.523L62.8496 104.298" stroke="white" stroke-width="5" stroke-linecap="round"/>
<path d="M51.3232 111.397L59.3032 111.173" stroke="white" stroke-width="5" stroke-linecap="round"/>
<path d="M28.7134 101.645L34.4767 92.1096" stroke="white" stroke-width="5" stroke-linecap="round"/>
<path d="M14.748 94.5513L30.9297 78.588" stroke="white" stroke-width="5" stroke-linecap="round"/>
<path d="M4.99463 76.5962L22.9496 68.3913" stroke="white" stroke-width="5" stroke-linecap="round"/>
<path d="M11.6445 64.6265L13.6396 64.6232" stroke="white" stroke-width="5" stroke-linecap="round"/>
<path d="M3 56.6465L21.62 56.6426" stroke="white" stroke-width="5" stroke-linecap="round"/>
<path d="M4.99463 41.3511L21.6196 48.2195" stroke="white" stroke-width="5" stroke-linecap="round"/>
<path d="M4.99463 41.3511L21.6196 48.2195" stroke="white" stroke-width="5" stroke-linecap="round"/>
<path d="M80.2188 46.3476C78.9204 43.4414 78.633 41.572 76.8942 38.9059C74.8186 35.7233 73.2486 34.0901 70.1451 31.898C67.3623 29.9323 65.5491 29.072 62.2724 28.1388C59.2404 27.2753 57.4103 27.0403 54.2598 27.1558C50.2812 27.3017 47.9917 27.9433 44.3514 29.5554C40.8485 31.1066 38.8402 32.2353 36.1963 35.0077C34.0746 37.2326 33.2635 38.8404 31.844 41.5674C30.3482 44.441 29.5117 46.1338 28.8571 49.3065C28.1215 52.8713 28.077 55.0374 28.6889 58.6255C29.1586 61.3801 29.7105 62.9001 30.886 65.4353C31.7331 67.2623 32.2427 68.2991 33.4575 69.9054C34.4472 71.2142 35.1938 71.7879 36.3204 72.981C38.4343 75.2196 40.2006 76.0152 41.8099 78.6401C42.4577 79.6967 42.8055 80.3147 43.2244 81.4812C43.8306 83.1691 43.7604 84.2296 44.0233 86.0037C44.3163 87.9807 44.1739 91.0998 44.5062 91.09C44.8386 91.0802 48.1956 90.981 50.4886 90.9133C52.7384 90.8468 53.9997 90.8095 56.2494 90.7431C60.9653 90.6038 68.5564 90.7122 68.1034 90.3929M80.0222 62.2094C79.2679 65.1149 78.584 66.7242 77.0156 69.2838C75.3348 72.027 73.606 72.9814 71.6564 75.5406C70.156 77.5101 69.8319 77.5904 68.4834 80.7349C67.1349 83.8795 68.0085 87.1801 68.0085 87.1801M68.1034 90.3929V90.3929C65.4924 88.5523 62.4841 87.3433 59.2909 87.4376L57.9271 87.4779L45.63 87.8412L68.0085 87.1801M68.1034 90.3929L68.0085 87.1801" stroke="white" stroke-width="5" stroke-linecap="round"/>
<path d="M14.5264 22.063L27.383 35.363" stroke="white" stroke-width="5" stroke-linecap="round"/>
<path d="M28.4917 16.2998L32.925 23.3931" stroke="white" stroke-width="5" stroke-linecap="round"/>
<path d="M35.585 10.98L40.905 22.0633" stroke="white" stroke-width="5" stroke-linecap="round"/>
<path d="M9.42822 83.6865V83.4649" stroke="white" stroke-width="5" stroke-linecap="round"/>
<path d="M8.98486 34.9199V34.6983" stroke="white" stroke-width="5" stroke-linecap="round"/>
<path d="M44.4512 9.42822V9.20656" stroke="white" stroke-width="5" stroke-linecap="round"/>
<path d="M96.7646 64.8447H98.538" stroke="white" stroke-width="5" stroke-linecap="round"/>
<path d="M65.9531 9.20654L66.056 9.00989" stroke="white" stroke-width="5" stroke-linecap="round"/>
<path d="M100.977 34.6729L101.079 34.4762" stroke="white" stroke-width="5" stroke-linecap="round"/>
<path d="M66.8394 39.7715L66.9423 39.5748" stroke="white" stroke-width="5" stroke-linecap="round"/>
<path d="M101.198 83.8828L101.301 83.6862" stroke="white" stroke-width="5" stroke-linecap="round"/>
<path d="M36.7043 61.4777C36.7043 61.4777 39.2018 65.4595 41.7916 66.5073C42.9013 66.9562 43.6023 67.3637 44.7841 67.1723C46.0522 66.9668 46.8421 66.4678 47.5549 65.399C48.5396 63.9226 47.9855 62.5764 47.5549 60.8548C47.099 59.0317 46.379 58.1281 45.2274 56.6431C43.6075 54.5541 41.5336 54.4866 40.0182 52.3206C39.2636 51.2419 38.7054 50.6226 38.4666 49.3281C38.1709 47.7253 38.3487 46.5904 39.2424 45.2273C40.0181 44.0441 41.1943 42.6608 42.6782 41.2373C44.0783 39.8943 44.9222 39.1779 46.5574 38.134C48.3033 37.0195 51.3233 35.8065 51.3233 35.8065" stroke="white" stroke-width="5" stroke-linecap="round"/>
</svg>
